<?xml version="1.0" encoding="utf-8"?>
<!-- Generator: Adobe Illustrator 26.3.1, SVG Export Plug-In . SVG Version: 6.00 Build 0)  -->
<svg version="1.1" id="Layer_1" xmlns="http://www.w3.org/2000/svg" xmlns:xlink="http://www.w3.org/1999/xlink" x="0px" y="0px"
	 viewBox="0 0 151 91" style="enable-background:new 0 0 151 91;" xml:space="preserve">
<style type="text/css">
	.st0{fill:#F7F8F9;stroke:#D2D2D2;stroke-miterlimit:10;}
	.st1{fill:#E3E6E9;}
	.st2{fill:#BDC5CB;}
	.st3{fill:#7A8B93;}
	.st4{fill:#BACAD1;stroke:#516C77;stroke-miterlimit:10;}
</style>
<g>
	<rect x="0.5" y="0.5" class="st0" width="150" height="90"/>
	<rect x="18.5" y="27.1" class="st1" width="114" height="12.2"/>
	<rect x="18.5" y="14.9" class="st2" width="114" height="12.2"/>
	<rect x="18.5" y="39.3" class="st2" width="114" height="12.3"/>
	<rect x="18.5" y="51.6" class="st1" width="114" height="12.2"/>
	<rect x="18.5" y="63.8" class="st2" width="114" height="12.3"/>
	<rect x="54.4" y="19.5" class="st3" width="20" height="1"/>
	<rect x="54.4" y="21.5" class="st3" width="12.4" height="1"/>
	<rect x="34.6" y="20" class="st3" width="15.1" height="2"/>
	<rect x="78.8" y="20.3" class="st3" width="15.7" height="1.5"/>
	<rect x="99.4" y="20.3" class="st3" width="11" height="1.5"/>
	<rect x="121" y="20.3" class="st4" width="6" height="1.5"/>
	<g transform="translate(0,-952.36218)">
		<path class="st3" d="M22.3,970.4c-0.2,0-0.4,0.2-0.4,0.4v4.4l2.4-2.5c0,0,0.1,0,0.1-0.1c0.1,0,0.1,0,0.2,0.1l1.9,2.1l1.3-1.4
			c0,0,0.1,0,0.1-0.1c0.1,0,0.1,0,0.2,0.1l1.8,2v-4.7c0-0.2-0.2-0.4-0.4-0.4L22.3,970.4L22.3,970.4z M26.6,971.7
			c0.3,0,0.5,0.3,0.5,0.5s-0.3,0.5-0.5,0.5s-0.6-0.2-0.6-0.5S26.3,971.7,26.6,971.7z M24.5,973.1l-2.5,2.6v0.2
			c0,0.2,0.2,0.4,0.4,0.4h5L24.5,973.1z M28,973.9l-1.2,1.3l1.1,1.2h1.7c0.2,0,0.3-0.1,0.4-0.3L28,973.9z"/>
	</g>
	<rect x="54.4" y="31.8" class="st3" width="20" height="1"/>
	<rect x="54.4" y="33.8" class="st3" width="15.9" height="1"/>
	<rect x="34.6" y="32.3" class="st3" width="15.1" height="2"/>
	<rect x="78.8" y="32.5" class="st3" width="15.7" height="1.5"/>
	<rect x="99.4" y="32.5" class="st3" width="11" height="1.5"/>
	<rect x="121" y="32.5" class="st4" width="6" height="1.5"/>
	<g transform="translate(0,-952.36218)">
		<path class="st3" d="M22.3,982.7c-0.2,0-0.4,0.2-0.4,0.4v4.4l2.4-2.5c0,0,0.1,0,0.1-0.1c0.1,0,0.1,0,0.2,0.1l1.9,2.1l1.3-1.4
			c0,0,0.1,0,0.1-0.1c0.1,0,0.1,0,0.2,0.1l1.8,2V983c0-0.2-0.2-0.4-0.4-0.4L22.3,982.7L22.3,982.7z M26.6,983.9
			c0.3,0,0.5,0.3,0.5,0.5s-0.3,0.5-0.5,0.5s-0.6-0.2-0.6-0.5S26.3,983.9,26.6,983.9z M24.5,985.3L22,988v0.2c0,0.2,0.2,0.4,0.4,0.4
			h5L24.5,985.3z M28,986.1l-1.2,1.3l1.1,1.2h1.7c0.2,0,0.3-0.1,0.4-0.3L28,986.1z"/>
	</g>
	<rect x="54.4" y="44" class="st3" width="20" height="1"/>
	<rect x="54.4" y="46" class="st3" width="9.1" height="1"/>
	<rect x="34.6" y="44.5" class="st3" width="15.1" height="2"/>
	<rect x="78.8" y="44.8" class="st3" width="15.7" height="1.5"/>
	<rect x="99.4" y="44.8" class="st3" width="11" height="1.5"/>
	<rect x="121" y="44.8" class="st4" width="6" height="1.5"/>
	<g transform="translate(0,-952.36218)">
		<path class="st3" d="M22.3,994.9c-0.2,0-0.4,0.2-0.4,0.4v4.4l2.4-2.5c0,0,0.1,0,0.1-0.1c0.1,0,0.1,0,0.2,0.1l1.9,2.1l1.3-1.4
			c0,0,0.1,0,0.1-0.1c0.1,0,0.1,0,0.2,0.1l1.8,2v-4.7c0-0.2-0.2-0.4-0.4-0.4L22.3,994.9L22.3,994.9z M26.6,996.2
			c0.3,0,0.5,0.3,0.5,0.5s-0.3,0.5-0.5,0.5S26,997,26,996.7S26.3,996.2,26.6,996.2z M24.5,997.6l-2.5,2.6v0.2c0,0.2,0.2,0.4,0.4,0.4
			h5L24.5,997.6z M28,998.3l-1.2,1.3l1.1,1.2h1.7c0.2,0,0.3-0.1,0.4-0.3L28,998.3z"/>
	</g>
	<rect x="54.4" y="56.2" class="st3" width="20" height="1"/>
	<rect x="54.4" y="58.2" class="st3" width="15.4" height="1"/>
	<rect x="34.6" y="56.7" class="st3" width="15.1" height="2"/>
	<rect x="78.8" y="57" class="st3" width="15.7" height="1.5"/>
	<rect x="99.4" y="57" class="st3" width="11" height="1.5"/>
	<rect x="121" y="57" class="st4" width="6" height="1.5"/>
	<g transform="translate(0,-952.36218)">
		<path class="st3" d="M22.3,1007.1c-0.2,0-0.4,0.2-0.4,0.4v4.4l2.4-2.5c0,0,0.1,0,0.1-0.1c0.1,0,0.1,0,0.2,0.1l1.9,2.1l1.3-1.4
			c0,0,0.1,0,0.1-0.1c0.1,0,0.1,0,0.2,0.1l1.8,2v-4.7c0-0.2-0.2-0.4-0.4-0.4L22.3,1007.1L22.3,1007.1z M26.6,1008.4
			c0.3,0,0.5,0.3,0.5,0.5s-0.3,0.5-0.5,0.5s-0.6-0.2-0.6-0.5C26,1008.7,26.3,1008.4,26.6,1008.4z M24.5,1009.8l-2.5,2.6v0.2
			c0,0.2,0.2,0.4,0.4,0.4h5L24.5,1009.8z M28,1010.6l-1.2,1.3l1.1,1.2h1.7c0.2,0,0.3-0.1,0.4-0.3L28,1010.6z"/>
	</g>
	<rect x="54.4" y="68.5" class="st3" width="20" height="1"/>
	<rect x="54.4" y="70.5" class="st3" width="6.7" height="1"/>
	<rect x="34.6" y="69" class="st3" width="15.1" height="2"/>
	<rect x="78.8" y="69.2" class="st3" width="15.7" height="1.5"/>
	<rect x="99.4" y="69.2" class="st3" width="11" height="1.5"/>
	<rect x="121" y="69.2" class="st4" width="6" height="1.5"/>
	<g transform="translate(0,-952.36218)">
		<path class="st3" d="M22.3,1019.4c-0.2,0-0.4,0.2-0.4,0.4v4.4l2.4-2.5c0,0,0.1,0,0.1-0.1c0.1,0,0.1,0,0.2,0.1l1.9,2.1l1.3-1.4
			c0,0,0.1,0,0.1-0.1c0.1,0,0.1,0,0.2,0.1l1.8,2v-4.7c0-0.2-0.2-0.4-0.4-0.4L22.3,1019.4L22.3,1019.4z M26.6,1020.7
			c0.3,0,0.5,0.3,0.5,0.5s-0.3,0.5-0.5,0.5s-0.6-0.2-0.6-0.5S26.3,1020.7,26.6,1020.7z M24.5,1022.1l-2.5,2.6v0.2
			c0,0.2,0.2,0.4,0.4,0.4h5L24.5,1022.1z M28,1022.8l-1.2,1.3l1.1,1.2h1.7c0.2,0,0.3-0.1,0.4-0.3L28,1022.8z"/>
	</g>
</g>
</svg>
